<?xml version="1.0" encoding="UTF-8"?>
<svg version="1.1" xmlns="http://www.w3.org/2000/svg" width="1024" height="1024">
<path d="M0 0 C337.92 0 675.84 0 1024 0 C1024 337.92 1024 675.84 1024 1024 C686.08 1024 348.16 1024 0 1024 C0 686.08 0 348.16 0 0 Z " fill="#FEFEFE" transform="translate(0,0)"/>
<path d="M0 0 C2.67647812 -0.0001553 5.35292977 -0.00159667 8.02940369 -0.00440979 C13.61449997 -0.00709475 19.19937924 0.00621563 24.78442383 0.02954102 C31.19998027 0.05615305 37.61517473 0.05788726 44.0307675 0.04615265 C50.25755666 0.03529602 56.48421756 0.04162236 62.71099663 0.05570793 C65.33617211 0.06019186 67.96135815 0.0605863 70.5865345 0.05664253 C94.65895489 0.03739941 115.9583244 1.61017962 135.27734375 17.49609375 C135.98246094 18.03878906 136.68757812 18.58148438 137.4140625 19.140625 C153.04914691 31.76541811 161.97534975 51.86087039 164.27734375 71.49609375 C164.42756289 75.07179834 164.44121984 78.64411994 164.4453125 82.22265625 C164.4486409 83.24733002 164.4519693 84.27200378 164.45539856 85.32772827 C164.46044573 87.49110467 164.46280757 89.65448881 164.46264648 91.81787109 C164.46482284 95.08965259 164.48297448 98.36109099 164.50195312 101.6328125 C164.57508376 128.0423011 160.27691764 153.42069003 140.99609375 172.84765625 C140.09890625 173.72164062 139.20171875 174.595625 138.27734375 175.49609375 C137.52453125 176.24632812 136.77171875 176.9965625 135.99609375 177.76953125 C116.99602483 195.73698773 92.99234888 197.96189443 68.12425232 197.81508827 C64.66732369 197.79645031 61.21099068 197.79945889 57.75402832 197.80815125 C47.93943649 197.82978499 38.12508593 197.81889239 28.31054688 197.78100586 C22.27368528 197.75919293 16.23741706 197.76644894 10.20057678 197.79146385 C7.91373174 197.795046 5.62683952 197.78745646 3.34007263 197.76821327 C0.14596918 197.7418205 -3.04611855 197.75233664 -6.24023438 197.77075195 C-7.17234741 197.7538179 -8.10446045 197.73688385 -9.06481934 197.71943665 C-16.11133994 197.81817441 -20.29253007 200.11915346 -25.72265625 204.49609375 C-26.35890175 205.00859334 -26.99514725 205.52109293 -27.65067291 206.04912281 C-29.33170357 207.4354551 -30.96693092 208.86352612 -32.59765625 210.30859375 C-33.80259652 211.35767762 -35.0083355 212.40584477 -36.21484375 213.453125 C-36.80362305 213.96568848 -37.39240234 214.47825195 -37.99902344 215.00634766 C-40.54445821 217.20638207 -43.12639512 219.35612374 -45.72265625 221.49609375 C-46.54765625 222.17671875 -47.37265625 222.85734375 -48.22265625 223.55859375 C-50.96800869 225.68624189 -53.82557815 227.58195287 -56.72265625 229.49609375 C-56.73723877 228.34608887 -56.75182129 227.19608398 -56.7668457 226.01123047 C-56.82499387 221.7282057 -56.90222549 217.44569759 -56.98510742 213.16308594 C-57.01827921 211.31258556 -57.04633512 209.46198589 -57.0690918 207.61132812 C-57.10278075 204.94488372 -57.15510285 202.27934285 -57.2109375 199.61328125 C-57.21732742 198.79117157 -57.22371735 197.96906189 -57.2303009 197.12203979 C-57.35521867 192.19733737 -58.01524643 188.76564085 -60.72265625 184.49609375 C-62.73526172 182.6368031 -64.69128472 180.97390731 -66.84765625 179.30859375 C-84.11344244 165.22479956 -92.85279013 146.75407967 -95.51322937 124.82635498 C-95.91222913 120.38674497 -95.88560053 115.94287128 -95.890625 111.48828125 C-95.8939534 110.44519806 -95.8972818 109.40211487 -95.90071106 108.3274231 C-95.90575405 106.12714068 -95.9081202 103.92685069 -95.90795898 101.7265625 C-95.91013587 98.40221161 -95.92829361 95.07819816 -95.94726562 91.75390625 C-96.01965545 65.20091953 -91.92226506 42.43744079 -72.72265625 22.49609375 C-51.65042328 2.70341472 -27.8515768 -0.13242649 0 0 Z " fill="#FDFEFE" transform="translate(310.72265625,202.50390625)"/>
<path d="M0 0 C3.17559029 2.50348382 6.134231 5.14870458 9 8 C9.10957031 7.31292969 9.21914063 6.62585938 9.33203125 5.91796875 C9.49058594 5.01691406 9.64914062 4.11585938 9.8125 3.1875 C10.03873047 1.84751953 10.03873047 1.84751953 10.26953125 0.48046875 C11.10918292 -2.37075484 11.61269622 -3.25697313 14 -5 C17.046875 -5.38818359 17.046875 -5.38818359 20.75 -5.3984375 C21.73178223 -5.40274277 21.73178223 -5.40274277 22.73339844 -5.40713501 C24.11524319 -5.40917368 25.49711693 -5.40365746 26.87890625 -5.39111328 C28.9928445 -5.37505436 31.10487113 -5.39096601 33.21875 -5.41015625 C34.56250422 -5.40817378 35.90625724 -5.40433002 37.25 -5.3984375 C38.47203125 -5.39505371 39.6940625 -5.39166992 40.953125 -5.38818359 C44 -5 44 -5 45.66619968 -3.9786911 C47.76472136 -0.86553682 47.41566821 2.41915802 47.38768005 6.04724121 C47.39575836 7.29135277 47.39575836 7.29135277 47.40399987 8.5605979 C47.41834852 11.34979275 47.41115882 14.13851762 47.40405273 16.92773438 C47.40975266 18.9232878 47.41671544 20.91883795 47.42485046 22.91438293 C47.44283772 28.34196634 47.44160317 33.76938858 47.43590808 39.19699287 C47.43282459 43.7226553 47.43889922 48.2482864 47.44494683 52.77394438 C47.45900843 63.44681609 47.45741687 74.1196078 47.44604492 84.79248047 C47.43455869 95.81647366 47.44864423 106.84022371 47.4754414 117.86418486 C47.49756486 127.31815926 47.50424346 136.77205716 47.49836498 146.22605562 C47.49498657 151.87734071 47.49746912 157.52846987 47.51461601 163.17973328 C47.53002995 168.49196892 47.52619153 173.803843 47.50731087 179.11606407 C47.50360971 181.06922522 47.50677758 183.02241283 47.51719666 184.9755497 C47.53030414 187.63504229 47.51895111 190.29331967 47.50120544 192.95275879 C47.51561295 194.12137522 47.51561295 194.12137522 47.53031152 195.31360006 C47.45866187 200.50612907 47.45866187 200.50612907 45.16421604 202.97670746 C40.53821554 205.16398993 35.1758291 204.51753159 30.15551758 204.50097656 C28.07167296 204.50000428 25.99151619 204.54163787 23.90820312 204.5859375 C22.58884766 204.58851563 21.26949219 204.59109375 19.91015625 204.59375 C18.10236694 204.60438477 18.10236694 204.60438477 16.25805664 204.61523438 C11.99842176 203.8108672 10.71171081 202.33593391 8 199 C7.36076355 195.89311218 7.36076355 195.89311218 7.34057617 192.3737793 C7.33009247 191.72931351 7.31960876 191.08484772 7.30880737 190.42085266 C7.2801586 188.3048121 7.2863356 186.19041768 7.29296875 184.07421875 C7.27984728 182.60160787 7.26454166 181.12901497 7.24714661 179.65644836 C7.20733498 175.79139695 7.19710876 171.92681674 7.19311523 168.06158447 C7.18377638 164.11317689 7.14635825 160.16504532 7.11132812 156.21679688 C7.04679163 148.47786218 7.01351948 140.73920985 7 133 C6.46849838 133.47789474 5.93699677 133.95578949 5.38938904 134.44816589 C4.68266556 135.07652847 3.97594208 135.70489105 3.24780273 136.35229492 C2.55130112 136.97456467 1.8547995 137.59683441 1.13719177 138.23796082 C-1.98120624 140.80896992 -5.30777808 142.57437358 -8.9375 144.3125 C-9.58912109 144.64572266 -10.24074219 144.97894531 -10.91210938 145.32226562 C-23.8920561 151.70396662 -41.24332829 152.36896155 -55.0625 148.4375 C-57.06573179 147.68628808 -59.04666124 146.87276838 -61 146 C-62.0725 145.525625 -63.145 145.05125 -64.25 144.5625 C-81.0700371 136.31116104 -93.69982754 121.64513246 -100 104 C-108.1384742 77.10165307 -106.49089711 51.90452261 -93.375 26.90234375 C-83.29399898 10.06028675 -68.2979891 -2.20111481 -49.4375 -7.8125 C-32.62803588 -11.63283275 -14.64674801 -9.17456021 0 0 Z " fill="#254CBB" transform="translate(292,505)"/>
<path d="M0 0 C0.81210937 0.73992187 1.62421875 1.47984375 2.4609375 2.2421875 C3.92660156 3.56863281 3.92660156 3.56863281 5.421875 4.921875 C22.8314015 21.21219801 33.90925861 43.64562581 34.734375 67.6015625 C35.37368952 100.35977189 26.2470509 123.44533286 3.61328125 147.1796875 C0.75761563 150.09389752 -2.19622273 152.84063947 -5.29003906 155.50024414 C-9.31737624 159.01044905 -13.16163899 162.67144104 -16.9609375 166.42578125 C-17.96184418 167.41458031 -17.96184418 167.41458031 -18.98297119 168.4233551 C-20.37925371 169.80592431 -21.77407654 171.18996915 -23.16748047 172.57543945 C-24.58459053 173.98097129 -26.00617122 175.38200963 -27.43212891 176.77856445 C-29.51418483 178.81783186 -31.58255905 180.87014157 -33.6484375 182.92578125 C-34.59695587 183.84803749 -34.59695587 183.84803749 -35.56463623 184.78892517 C-41.29324414 190.54572295 -44.09984528 196.54927165 -46.5390625 204.2421875 C-48.08954447 205.79266947 -49.55442646 205.37189264 -51.7109375 205.375 C-53.03472412 205.37838379 -53.03472412 205.37838379 -54.38525391 205.38183594 C-55.34351074 205.37700195 -56.30176758 205.37216797 -57.2890625 205.3671875 C-58.75545166 205.35993652 -58.75545166 205.35993652 -60.25146484 205.35253906 C-63.34759829 205.32771837 -66.44316786 205.28772961 -69.5390625 205.2421875 C-70.5403418 205.22961914 -71.54162109 205.21705078 -72.57324219 205.20410156 C-75.43806909 205.15775738 -78.30025889 205.08070139 -81.1640625 204.9921875 C-82.04545898 204.97816895 -82.92685547 204.96415039 -83.83496094 204.94970703 C-87.67524192 204.79853263 -89.88708631 204.69409161 -93.09765625 202.46875 C-96.65851693 196.96823351 -94.57304593 189.59137656 -93.4765625 183.4921875 C-88.34762103 161.57546076 -71.94363021 145.56690611 -56.49609375 130.21484375 C-55.95045273 129.67199738 -55.40481171 129.129151 -54.84263611 128.56985474 C-52.07792167 125.82137179 -49.30661306 123.08012623 -46.52319336 120.35058594 C-38.73339914 112.67430488 -30.8734198 104.91949642 -26.1015625 94.9296875 C-25.62847656 93.96417969 -25.15539062 92.99867188 -24.66796875 92.00390625 C-20.46900676 81.73170511 -21.29251823 68.081694 -25.28125 57.88671875 C-30.71648657 46.45921826 -37.96825125 39.8337799 -49.70703125 35.1875 C-60.8718061 31.46077515 -75.69969937 31.61144692 -86.5390625 36.2421875 C-90.71731026 38.38999463 -94.88196716 40.55382621 -98.1953125 43.9296875 C-99.5390625 45.2421875 -99.5390625 45.2421875 -101.5390625 45.2421875 C-101.81234375 45.82613281 -102.085625 46.41007812 -102.3671875 47.01171875 C-103.51047951 49.18778454 -104.81107295 50.97095403 -106.2890625 52.9296875 C-109.78749008 58.03619426 -111.59205311 63.53547824 -113.44628906 69.3894043 C-115.70230915 76.36019083 -115.70230915 76.36019083 -118.5390625 78.2421875 C-124.62742202 78.8152672 -129.52272401 77.66030533 -135.2734375 75.7578125 C-136.07388489 75.50094666 -136.87433228 75.24408081 -137.69903564 74.97943115 C-139.37822129 74.4370562 -141.05552033 73.88880829 -142.73095703 73.33496094 C-145.29043522 72.49173525 -147.85724069 71.67452001 -150.42578125 70.859375 C-152.06300104 70.32705939 -153.69973803 69.7932561 -155.3359375 69.2578125 C-156.48131989 68.89505219 -156.48131989 68.89505219 -157.64984131 68.52496338 C-161.78024564 67.13815053 -164.93337489 65.93654401 -167.5390625 62.2421875 C-168.34362199 55.75792987 -165.77182457 48.97066127 -163.4765625 42.9921875 C-163.16638184 42.17298828 -162.85620117 41.35378906 -162.53662109 40.50976562 C-152.47700251 14.77562403 -133.21205995 -4.34711044 -108.03515625 -15.41015625 C-103.99565802 -16.96728127 -99.93299607 -18.32126902 -95.7890625 -19.5703125 C-95.10416748 -19.7775293 -94.41927246 -19.98474609 -93.71362305 -20.19824219 C-62.68945658 -29.03143422 -24.59648559 -21.00098603 0 0 Z " fill="#519DF8" transform="translate(801.5390625,279.7578125)"/>
<path d="M0 0 C1.11140099 -0.00786278 1.11140099 -0.00786278 2.24525452 -0.0158844 C3.81119535 -0.02230308 5.37718441 -0.02096953 6.94311523 -0.01245117 C9.33600017 -0.00394767 11.72649202 -0.03268903 14.11914062 -0.06445312 C15.64192637 -0.06606547 17.16471633 -0.06548696 18.6875 -0.0625 C19.40115219 -0.07373398 20.11480438 -0.08496796 20.8500824 -0.09654236 C24.06028622 -0.05164322 26.00669071 0.12823101 28.59930515 2.09045029 C30.90212075 5.07016922 30.91062788 6.68457687 30.91136169 10.42559814 C30.92119583 11.65326904 30.93102997 12.88093994 30.94116211 14.14581299 C30.93178974 15.50378695 30.9220104 16.86175815 30.91186523 18.21972656 C30.9156493 19.65247122 30.92115007 21.08521222 30.92823792 22.51794434 C30.94221375 26.41137474 30.93100135 30.30436413 30.9145267 34.19777012 C30.90065679 38.28490594 30.90713971 42.37201661 30.91065979 46.45916748 C30.91336406 53.33580598 30.89988038 60.2122702 30.87670898 67.08886719 C30.85022469 75.00261524 30.84831076 82.91606958 30.86009735 90.82984662 C30.87094709 98.4693937 30.8646239 106.10883609 30.85054207 113.74837494 C30.8448314 116.98400136 30.84482604 120.21954991 30.84960747 123.45517731 C30.85444406 127.28678607 30.84400506 131.11808138 30.82265282 134.94963074 C30.8171696 136.34260247 30.81653973 137.73560487 30.82160568 139.12857819 C30.86184809 151.80097808 29.97108313 165.49683975 23.72265625 176.80859375 C23.37235352 177.46867432 23.02205078 178.12875488 22.66113281 178.80883789 C13.46672549 195.63164001 -1.33416809 206.20689105 -19.58984375 211.68359375 C-21.91726448 212.29008775 -24.25047896 212.87493947 -26.58984375 213.43359375 C-27.94916016 213.77390625 -27.94916016 213.77390625 -29.3359375 214.12109375 C-52.61581748 218.98655488 -77.97726569 215.34684248 -98.40234375 203.18359375 C-115.35568955 191.63821434 -122.82984253 175.98353981 -126.58984375 156.43359375 C-127.87389218 149.51375672 -127.75978198 142.61193622 -127.78271484 135.59130859 C-127.79062723 134.18953759 -127.79889687 132.78776856 -127.80749512 131.38600159 C-127.83355844 126.80553085 -127.84899534 122.22505162 -127.86328125 117.64453125 C-127.86864521 116.06372702 -127.87402272 114.48292283 -127.8794136 112.90211868 C-127.90100889 106.32911404 -127.91974805 99.75611173 -127.931036 93.18308067 C-127.94730095 83.7765855 -127.98057822 74.37050149 -128.03743684 64.96416128 C-128.07611283 58.33979293 -128.0956652 51.71553476 -128.10095656 45.09105647 C-128.10460991 41.13761816 -128.11663106 37.18462002 -128.1490593 33.23130417 C-128.17910351 29.51616042 -128.18546545 25.80172419 -128.17367554 22.08648491 C-128.17334927 20.07522336 -128.19783261 18.06400567 -128.22305298 16.05290222 C-128.15493263 6.22621164 -128.15493263 6.22621164 -125.26748657 3.12506104 C-121.7675423 0.91414583 -119.40602901 0.78768502 -115.27734375 0.76953125 C-114.58600342 0.76474762 -113.89466309 0.75996399 -113.18237305 0.7550354 C-111.72670199 0.75164639 -110.27095379 0.76077925 -108.81542969 0.78173828 C-106.59526878 0.80852829 -104.38016114 0.78196728 -102.16015625 0.75 C-100.74087433 0.75330429 -99.32159554 0.75971094 -97.90234375 0.76953125 C-96.61972656 0.7751709 -95.33710938 0.78081055 -94.015625 0.78662109 C-89.45047119 1.64876887 -88.30799029 2.64169064 -85.58984375 6.43359375 C-84.84201083 10.60253807 -84.93107938 14.73082296 -84.97802734 18.95629883 C-84.97236252 20.22855316 -84.96669769 21.5008075 -84.96086121 22.81161499 C-84.94869376 25.5760411 -84.95213617 28.33984974 -84.96769333 31.10425758 C-84.99208786 35.49047197 -84.98047943 39.87615054 -84.96401978 44.26237488 C-84.93952457 52.00767484 -84.94531423 59.75273057 -84.95782471 67.49804688 C-84.97637235 79.11544183 -84.97128985 90.73278545 -84.93779051 102.35014647 C-84.92639042 106.69422676 -84.93098409 111.03791359 -84.94741642 115.38197225 C-86.08842978 141.22911115 -86.08842978 141.22911115 -76.58984375 164.43359375 C-74.12711899 166.86883274 -71.57307142 168.68407164 -68.58984375 170.43359375 C-67.58244141 171.05427734 -67.58244141 171.05427734 -66.5546875 171.6875 C-56.6177708 176.71729734 -42.29864227 175.94486278 -31.83984375 172.87109375 C-24.21469855 169.80164971 -18.63274129 165.0455414 -15.328125 157.4609375 C-11.39772947 146.6679466 -11.44189794 135.40754203 -11.43212891 124.04516602 C-11.42433072 122.04429283 -11.41652844 120.04341966 -11.408571 118.04254711 C-11.40090599 115.91227783 -11.39549654 113.78201266 -11.39061356 111.65173531 C-11.37985641 107.20161715 -11.35959752 102.75157288 -11.3374939 98.30149841 C-11.27580833 85.65489033 -11.22143606 73.00829049 -11.18847656 60.36157227 C-11.17015256 53.36083162 -11.14126024 46.36021868 -11.10047185 39.35957187 C-11.07939447 35.66014372 -11.06394326 31.96087634 -11.06166458 28.26138496 C-11.05912589 24.14616284 -11.03370645 20.0313917 -11.00634766 15.91625977 C-11.01085686 14.07650574 -11.01085686 14.07650574 -11.01545715 12.19958496 C-10.99881767 10.52383141 -10.99881767 10.52383141 -10.98184204 8.81422424 C-10.97853189 7.84181573 -10.97522175 6.86940722 -10.97181129 5.86753178 C-10.58984375 3.43359375 -10.58984375 3.43359375 -9.27773094 1.62255764 C-6.47144016 -0.35422044 -3.31042583 -0.01357906 0 0 Z " fill="#254CBB" transform="translate(494.58984375,439.56640625)"/>
<path d="M0 0 C1.28225637 -0.00226215 1.28225637 -0.00226215 2.59041691 -0.00457001 C3.57321629 -0.0158493 4.55601566 -0.0271286 5.56859684 -0.03874969 C6.64556324 -0.03065277 7.72252964 -0.02255585 8.83213139 -0.01421356 C9.96731205 -0.02122284 11.10249271 -0.02823212 12.27207279 -0.0354538 C16.03525901 -0.05309996 19.7976969 -0.04138604 23.56089115 -0.02788544 C26.17019133 -0.03057861 28.77949053 -0.03445957 31.38878727 -0.03948212 C36.86233509 -0.04676132 42.33566711 -0.037165 47.80918217 -0.01811981 C54.13557195 0.00363891 60.46144591 -0.00339353 66.78782314 -0.02542543 C72.87422137 -0.04577269 78.9603911 -0.0436084 85.0468092 -0.0318985 C87.63642352 -0.02922633 90.22605097 -0.03251809 92.81564999 -0.04181671 C96.43347951 -0.05195477 100.05031365 -0.0365173 103.66806889 -0.01421356 C105.28048214 -0.02635895 105.28048214 -0.02635895 106.9254694 -0.03874969 C114.16366178 0.04408323 114.16366178 0.04408323 117.48705387 2.38825226 C119.068621 4.90770878 119.23828202 6.30412609 119.0647974 9.25336456 C119.02870365 10.05258331 118.9926099 10.85180206 118.9554224 11.67523956 C118.90901615 12.27852081 118.8626099 12.88180206 118.8147974 13.50336456 C119.42476566 13.48765411 120.03473392 13.47194366 120.66318607 13.45575714 C123.4427945 13.39316643 126.22225432 13.35429834 129.0022974 13.31586456 C129.96200443 13.29072784 130.92171146 13.26559113 131.91050053 13.23969269 C140.96031607 13.14574997 140.96031607 13.14574997 144.8147974 16.50336456 C150.55289277 23.20489322 150.69053725 31.57830937 150.29526615 39.95648956 C149.38727195 50.83412289 144.72986281 60.16328568 137.8147974 68.50336456 C137.03169193 69.45469269 137.03169193 69.45469269 136.23276615 70.42523956 C128.78738054 78.61335221 118.59498603 83.5239514 107.8147974 85.50336456 C106.52315678 85.55621613 105.23151615 85.60906769 103.9007349 85.66352081 C98.76138214 86.28178881 96.45357548 89.31401338 93.1897974 93.06586456 C86.05283278 100.7472402 78.19250961 106.90893651 67.8147974 109.50336456 C67.8147974 117.09336456 67.8147974 124.68336456 67.8147974 132.50336456 C74.12696694 132.38530794 74.12696694 132.38530794 80.43833256 132.23310089 C85.66104214 132.18400932 89.31966846 132.53475046 93.8147974 135.50336456 C97.52856202 139.61861725 98.95577009 142.00875962 98.9397974 147.50336456 C98.94237553 148.39023956 98.94495365 149.27711456 98.9476099 150.19086456 C98.8147974 152.50336456 98.8147974 152.50336456 97.8147974 154.50336456 C70.0947974 154.50336456 42.3747974 154.50336456 13.8147974 154.50336456 C12.07794687 151.02966349 12.35364628 147.30145644 12.8147974 143.50336456 C15.34720122 138.53234966 18.80340874 135.00905889 23.8147974 132.50336456 C25.33628066 132.41963797 26.86135518 132.3960643 28.3851099 132.40570831 C29.19222416 132.40820587 29.99933842 132.41070343 30.83091068 132.41327667 C32.36980961 132.42693268 32.36980961 132.42693268 33.9397974 132.44086456 C38.8279224 132.47180206 38.8279224 132.47180206 43.8147974 132.50336456 C43.8147974 124.91336456 43.8147974 117.32336456 43.8147974 109.50336456 C41.8347974 108.84336456 39.8547974 108.18336456 37.8147974 107.50336456 C27.6901806 102.83598803 20.059967 95.85868112 12.8147974 87.50336456 C12.8147974 86.84336456 12.8147974 86.18336456 12.8147974 85.50336456 C12.25534428 85.56137238 11.69589115 85.61938019 11.1194849 85.67914581 C-1.65032272 86.39770412 -12.74066487 80.7153362 -22.1852026 72.50336456 C-31.20170576 64.33714068 -37.44647954 51.56737928 -38.43129635 39.48383331 C-38.7370962 31.52377059 -37.9425779 24.23285149 -32.8414526 17.81195831 C-31.4977026 16.44086456 -31.4977026 16.44086456 -29.1852026 14.50336456 C-28.8552026 14.17336456 -28.5252026 13.84336456 -28.1852026 13.50336456 C-26.47747902 13.41622625 -24.76621611 13.39636449 -23.05629635 13.40570831 C-21.50458736 13.4105423 -21.50458736 13.4105423 -19.92153072 13.41547394 C-18.83291744 13.42385284 -17.74430416 13.43223175 -16.6227026 13.44086456 C-14.9839819 13.44763214 -14.9839819 13.44763214 -13.31215572 13.45453644 C-10.60311765 13.4663663 -7.89418661 13.48284913 -5.1852026 13.50336456 C-5.23740963 12.59844269 -5.23740963 12.59844269 -5.29067135 11.67523956 C-5.31774166 10.87602081 -5.34481197 10.07680206 -5.3727026 9.25336456 C-5.40750729 8.46445831 -5.44231197 7.67555206 -5.47817135 6.86273956 C-5.03034861 3.25627375 -3.66808058 0.84494764 0 0 Z " fill="#509DF8" transform="translate(289.1852025985718,237.49663543701172)"/>
<path d="M0 0 C1.06173431 -0.0049649 2.12346863 -0.00992981 3.21737671 -0.01504517 C6.70303008 -0.02955508 10.18863789 -0.03645169 13.67431641 -0.04199219 C14.87582966 -0.04481956 16.07734291 -0.04764694 17.31526566 -0.05056 C23.67958035 -0.06551079 30.04387263 -0.07476498 36.40820312 -0.07910156 C42.92803199 -0.08456595 49.4476499 -0.10856307 55.96741295 -0.13707352 C61.02772589 -0.15585365 66.08798968 -0.16091371 71.1483345 -0.16243744 C73.54889701 -0.16543224 75.94945934 -0.17335093 78.34998703 -0.18662262 C112.71067358 -0.36296414 140.40333348 5.65315899 166.08837891 29.84863281 C184.61614243 49.09825726 193.00093399 73.80540025 193.10400391 100.15722656 C193.10970398 101.30417496 193.11540405 102.45112335 193.12127686 103.63282776 C193.13069323 106.0559091 193.13724741 108.47900305 193.14111328 110.90209961 C193.15076558 114.55573762 193.18180023 118.20879966 193.21337891 121.86230469 C193.36717959 155.43395895 185.22689513 183.32815899 161.43603516 207.68457031 C141.79965357 226.33435898 116.22086034 234.57089018 89.6027832 234.17602539 C87.60674956 234.15661647 85.61071147 234.13765995 83.6146698 234.11909485 C82.5739501 234.10793451 81.5332304 234.09677418 80.46097374 234.08527565 C73.71301938 234.02352494 66.96470261 234.02402023 60.21650982 234.01266956 C54.31184685 233.99922966 48.40879286 233.96425623 42.50463867 233.88354492 C36.75949981 233.80624534 31.01680745 233.78828426 25.27121925 233.80936241 C23.09723979 233.80692314 20.92316898 233.78351205 18.74967003 233.73774147 C7.88240305 233.52016222 -0.82386364 233.34714944 -9.19750977 240.96459961 C-10.75160088 242.50383961 -12.24678102 244.07372877 -13.71486473 245.69498253 C-15.8184162 247.9229821 -18.19192905 249.77366607 -20.59912109 251.66113281 C-25.54422529 255.66849873 -30.36805305 259.80539267 -35.15380859 264.00097656 C-40.66105715 268.77988831 -45.43156157 272.80444941 -52.91943359 273.32128906 C-56.57164626 273.05293652 -58.46364023 271.60836505 -61.09912109 269.16113281 C-64.85871337 263.58041818 -64.48115337 258.21206506 -64.44287109 251.73535156 C-64.47174615 249.47164815 -64.5030728 247.20797492 -64.53662109 244.94433594 C-64.57588211 241.39538548 -64.59912418 237.84919276 -64.57958984 234.30004883 C-63.74907653 220.79340618 -63.74907653 220.79340618 -68.44604492 208.78100586 C-71.22384086 206.55675196 -73.98435431 204.8665491 -77.09912109 203.16113281 C-79.24118275 201.14631947 -81.01556655 198.9414199 -82.78662109 196.59863281 C-83.23666504 196.01202881 -83.68670898 195.4254248 -84.15039062 194.82104492 C-97.75740566 176.45519994 -103.39379225 154.84563568 -103.43505859 132.24316406 C-103.44171539 130.94650314 -103.44837219 129.64984222 -103.45523071 128.31388855 C-103.46710631 125.58512032 -103.47092179 122.85647773 -103.46972656 120.12768555 C-103.4695643 117.36700154 -103.48342137 114.60698316 -103.51074219 111.84643555 C-103.81868612 80.25501648 -98.41359562 53.13214026 -75.83740234 29.90332031 C-74.93376953 28.99839844 -74.03013672 28.09347656 -73.09912109 27.16113281 C-72.30892578 26.35933594 -71.51873047 25.55753906 -70.70458984 24.73144531 C-51.4053899 6.23237803 -26.10555434 0.02978065 0 0 Z M-41.53662109 26.97363281 C-42.19637939 27.31692627 -42.8561377 27.66021973 -43.53588867 28.01391602 C-50.98914475 31.99858016 -57.34067124 36.97079922 -63.09912109 43.16113281 C-63.76556641 43.81082031 -64.43201172 44.46050781 -65.11865234 45.12988281 C-80.58998127 60.94384764 -85.20790741 81.79617862 -85.30224609 103.25878906 C-85.30794617 104.29192734 -85.31364624 105.32506561 -85.31951904 106.38951111 C-85.32890954 108.56524654 -85.33547914 110.74099581 -85.33935547 112.91674805 C-85.34902333 116.19052916 -85.38008937 119.46367131 -85.41162109 122.73730469 C-85.5448283 149.00479434 -81.13646069 172.02169725 -63.09912109 192.16113281 C-60.00221711 195.15325433 -56.74073637 197.89360244 -53.33349609 200.52441406 C-49.91451303 203.2048304 -48.3277934 205.004879 -47.09912109 209.16113281 C-46.77986676 212.16613655 -46.72722884 215.16052791 -46.68505859 218.18066406 C-46.66569244 219.03923508 -46.64632629 219.89780609 -46.62637329 220.78239441 C-46.56680553 223.51270755 -46.52028375 226.24306338 -46.47412109 228.97363281 C-46.4359203 230.82977054 -46.39686735 232.68589094 -46.35693359 234.54199219 C-46.26112283 239.08156425 -46.17700789 243.62121928 -46.09912109 248.16113281 C-41.1863201 244.54187648 -36.41078588 240.82931487 -31.78662109 236.84863281 C-30.66209857 235.89104057 -29.53709033 234.93401844 -28.41162109 233.97753906 C-27.85732422 233.50590332 -27.30302734 233.03426758 -26.73193359 232.54833984 C-24.26030228 230.448488 -21.7798264 228.36034111 -19.28662109 226.28613281 C-18.47580078 225.60808594 -17.66498047 224.93003906 -16.82958984 224.23144531 C-15.92853516 223.54824219 -15.02748047 222.86503906 -14.09912109 222.16113281 C-13.28049528 221.53001886 -13.28049528 221.53001886 -12.44533157 220.88615513 C-6.87828317 216.96863627 -2.47645491 216.45790759 4.22216797 216.56518555 C5.22508881 216.56112701 6.22800964 216.55706848 7.26132202 216.55288696 C9.4296088 216.54738706 11.59794885 216.55332917 13.76618195 216.56954765 C17.21719828 216.59510195 20.66702737 216.59012137 24.11810303 216.57765198 C31.46249293 216.5569359 38.80651352 216.5765134 46.15087891 216.59863281 C54.6285676 216.61985845 63.10586795 216.6240099 71.5835495 216.59813118 C74.94891177 216.59481773 78.31350013 216.61583908 81.67877197 216.63853455 C108.43090765 216.67503203 131.66584307 211.52535171 151.27587891 192.28613281 C168.55903858 174.66856824 174.99701369 151.38769217 175.10400391 127.30957031 C175.10970398 126.29246979 175.11540405 125.27536926 175.12127686 124.22744751 C175.1306742 122.08442202 175.13723973 119.94138243 175.14111328 117.79833984 C175.15078907 114.56614146 175.18185153 111.33458794 175.21337891 108.10253906 C175.34469705 82.76253182 170.26031137 60.6370946 152.40869141 41.57519531 C135.77112126 25.55959041 115.84272921 19.04005937 93.16088867 18.98413086 C91.99563156 18.97755966 90.83037445 18.97098846 89.62980652 18.96421814 C85.78396531 18.94455408 81.93816309 18.93283602 78.09228516 18.92285156 C76.77270247 18.91877604 75.45311977 18.91470051 74.09354973 18.91050148 C67.82406834 18.89147374 61.5545985 18.87724121 55.28509384 18.86888951 C48.09207005 18.85914488 40.89935624 18.83288835 33.70644146 18.79238862 C28.11883295 18.76202778 22.53131226 18.74740168 16.94362301 18.7441085 C13.61970537 18.74177942 10.29638087 18.73106515 6.97250557 18.70764732 C-10.0675286 18.59508367 -26.15838565 18.66124241 -41.53662109 26.97363281 Z " fill="#4E9CF8" transform="translate(300.09912109375,183.8388671875)"/>
<path d="M0 0 C1.00244751 -0.00845947 2.00489502 -0.01691895 3.03771973 -0.02563477 C4.6781852 -0.01652573 4.6781852 -0.01652573 6.35179138 -0.00723267 C7.50823151 -0.01248962 8.66467163 -0.01774658 9.8561554 -0.02316284 C13.68353225 -0.03638042 17.51049419 -0.02761872 21.33787537 -0.01748657 C23.99298624 -0.01950666 26.64808444 -0.02241274 29.30319214 -0.02618408 C34.86907969 -0.03164005 40.43484776 -0.02445347 46.00071716 -0.01016235 C52.43670006 0.00617199 58.87239797 0.00086953 65.30837399 -0.01564157 C70.83459526 -0.02925148 76.3607307 -0.03117881 81.88696331 -0.02332556 C85.18743962 -0.01864729 88.48775244 -0.01920546 91.78822517 -0.02793503 C95.46586189 -0.03552762 99.14294598 -0.02397569 102.82054138 -0.00723267 C103.91620926 -0.01330536 105.01187714 -0.01937805 106.14074707 -0.02563477 C107.14037476 -0.01717529 108.14000244 -0.00871582 109.16992188 0 C110.03950814 0.00113108 110.90909441 0.00226215 111.80503178 0.00342751 C114.50031509 0.46251225 115.37977017 1.23339134 117.02146912 3.38095093 C118.73731129 10.70014436 118.91584153 21.30012514 115.46287537 28.09579468 C113.60502968 30.79904537 111.66724385 33.30199476 109.47654724 35.74276733 C107.88149306 37.53854142 106.37990026 39.39110398 104.88084412 41.26766968 C102.6813869 44.01838742 100.46227794 46.7503935 98.22068787 49.46688843 C95.37568009 52.9282441 92.61383511 56.44385044 89.89646912 60.00595093 C82.56414496 69.60527386 75.09892273 79.08682984 67.45896912 88.44345093 C60.78808627 96.61343077 54.34648679 104.94009904 48.02146912 113.38095093 C48.83721909 113.38237595 49.65296906 113.38380096 50.49343872 113.38526917 C58.18874805 113.40311361 65.88338854 113.44476886 73.57840252 113.5130415 C77.53435505 113.5473036 81.48992174 113.57242015 85.44602966 113.57650757 C89.26542391 113.58079238 93.0839479 113.60926837 96.90307045 113.65438271 C98.35862467 113.66735219 99.81428307 113.67166727 101.26988792 113.66710472 C103.31262531 113.66219396 105.35282366 113.68830241 107.39524841 113.7215271 C109.13731819 113.73151985 109.13731819 113.73151985 110.9145813 113.74171448 C114.96262504 114.57459203 116.46898615 116.19718273 119.02146912 119.38095093 C119.65257263 122.45541382 119.65257263 122.45541382 119.65037537 125.85360718 C119.65230896 127.08272827 119.65424255 128.31184937 119.65623474 129.57821655 C119.63238708 130.8537439 119.60853943 132.12927124 119.58396912 133.44345093 C119.59492615 134.72284546 119.60588318 136.00223999 119.61717224 137.32040405 C119.54311714 146.72540143 119.54311714 146.72540143 117.30877781 149.53327179 C114.57683255 151.74012663 113.35970819 151.88306974 109.89108276 151.8888855 C108.85497864 151.90016479 107.81887451 151.91144409 106.75137329 151.92306519 C105.62032669 151.91496826 104.48928009 151.90687134 103.32395935 151.89852905 C102.12850494 151.90553833 100.93305054 151.91254761 99.70137024 151.91976929 C96.42649786 151.93435605 93.15227234 151.93094067 89.8774097 151.91825294 C86.4501604 151.9081219 83.02295413 151.91751868 79.59570312 151.92379761 C73.84146877 151.93107277 68.08743985 151.92148891 62.33323669 151.9024353 C55.6790575 151.88065621 49.02536834 151.88772553 42.37120098 151.90974092 C36.65812687 151.92788652 30.94520036 151.93045777 25.23210675 151.91998625 C21.81982167 151.91374791 18.40776705 151.91292492 14.99549675 151.9261322 C11.19318544 151.93625485 7.39182459 151.92085536 3.58958435 151.89852905 C2.45651352 151.90662598 1.32344269 151.9147229 0.15603638 151.92306519 C-0.87724792 151.91178589 -1.91053223 151.90050659 -2.97512817 151.8888855 C-3.87421182 151.8873774 -4.77329546 151.88586929 -5.69962406 151.88431549 C-7.97853088 151.38095093 -7.97853088 151.38095093 -9.76634121 149.55184174 C-11.48219908 146.47893973 -11.37609807 144.00386544 -11.35353088 140.50595093 C-11.36126526 139.31227905 -11.36899963 138.11860718 -11.37696838 136.88876343 C-10.54478259 129.56226497 -5.9832466 124.53330409 -1.54103088 118.94345093 C-0.91994446 118.15357788 -0.29885803 117.36370483 0.34104919 116.54989624 C5.24597845 110.32351913 10.19773403 104.13421361 15.16209412 97.95516968 C17.95553588 94.47281754 20.7097557 90.96075381 23.45896912 87.44345093 C27.98179761 81.65990655 32.60522108 75.96326256 37.25120544 70.27841187 C40.14749912 66.72341924 43.00391331 63.14687864 45.77561951 59.4937439 C46.22799988 58.89964722 46.68038025 58.30555054 47.14646912 57.69345093 C48.2497052 56.24410156 48.2497052 56.24410156 49.37522888 54.76547241 C52.09108442 51.25171412 54.94445392 47.86456225 57.82615662 44.48641968 C58.32881042 43.89486084 58.83146423 43.303302 59.34934998 42.69381714 C60.57213031 41.25512374 61.79661862 39.81788227 63.02146912 38.38095093 C62.19319107 38.3773053 61.36491302 38.37365967 60.51153564 38.36990356 C52.69858153 38.33200732 44.88604416 38.27513631 37.07338428 38.19704819 C33.056958 38.15757039 29.04075104 38.12538363 25.02415466 38.10995483 C21.14649585 38.09478987 17.26944 38.06034824 13.39204979 38.01264191 C11.91416864 37.99782626 10.4362014 37.9899098 8.95824623 37.98906708 C6.88467564 37.98669599 4.81276955 37.95961044 2.73948669 37.92684937 C1.56034195 37.91796692 0.3811972 37.90908447 -0.8336792 37.89993286 C-4.62571061 37.27414952 -6.30782527 36.10689409 -8.97853088 33.38095093 C-9.6096344 30.22055054 -9.6096344 30.22055054 -9.60743713 26.53329468 C-9.60984909 25.88018814 -9.61226105 25.2270816 -9.61474609 24.55418396 C-9.61376953 23.17826239 -9.6004205 21.80230062 -9.57545471 20.42660522 C-9.54106988 18.32083934 -9.55481475 16.21925586 -9.57423401 14.1133728 C-9.5673369 12.77416225 -9.55766571 11.4349625 -9.54493713 10.09579468 C-9.53406067 8.88012817 -9.5231842 7.66446167 -9.51197815 6.41195679 C-8.97853088 3.38095093 -8.97853088 3.38095093 -7.25634861 1.71532249 C-4.59383566 0.15559209 -3.06801778 0.00398886 0 0 Z " fill="#254CBB" transform="translate(637.9785308837891,499.6190490722656)"/>
<path d="M0 0 C0.69749863 -0.00145523 1.39499725 -0.00291046 2.1136322 -0.00440979 C3.58369131 -0.00275414 5.05376835 0.00876998 6.52368164 0.02954102 C8.7736969 0.05854674 11.02136178 0.05013575 13.27148438 0.03710938 C14.70183436 0.04334583 16.13217692 0.05173605 17.5625 0.0625 C18.86195557 0.07224854 20.16141113 0.08199707 21.50024414 0.09204102 C24.71484375 0.49609375 24.71484375 0.49609375 26.39068508 1.65643406 C28.2636864 4.25860335 28.10086565 6.14360599 28.11598206 9.33470154 C28.12877701 10.55309723 28.14157196 11.77149292 28.15475464 13.02680969 C28.15370608 14.37912016 28.15232147 15.73143041 28.15063477 17.08374023 C28.15961012 18.50625402 28.16981785 19.9287605 28.1811676 21.35125732 C28.20769346 25.21696643 28.21470208 29.08247639 28.21661496 32.9482677 C28.21946214 36.17401872 28.23049677 39.39972325 28.24113125 42.62545639 C28.2655666 50.23478457 28.27288376 57.84400624 28.27075195 65.45336914 C28.26894896 73.30672494 28.30061568 81.15946294 28.34798294 89.01266235 C28.38718814 95.75246197 28.40330459 102.49205947 28.40138572 109.23197228 C28.40062017 113.25868917 28.40920517 117.28485703 28.44091988 121.31146049 C28.46993001 125.09809748 28.47022665 128.88365935 28.44836998 132.67033386 C28.44522814 134.06030914 28.45234758 135.45035095 28.47045135 136.84021187 C28.59801563 147.3113942 28.59801563 147.3113942 26.43865871 150.20798683 C23.00111808 152.63450396 19.50570402 153.00999128 15.3984375 153.02734375 C14.22216797 153.0325 13.04589844 153.03765625 11.83398438 153.04296875 C10.61904297 153.0275 9.40410156 153.01203125 8.15234375 152.99609375 C6.93353516 153.0115625 5.71472656 153.02703125 4.45898438 153.04296875 C3.28400391 153.0378125 2.10902344 153.03265625 0.8984375 153.02734375 C-0.16834229 153.02283203 -1.23512207 153.01832031 -2.33422852 153.01367188 C-5.97121409 152.3757626 -7.64879808 151.03040508 -10.28515625 148.49609375 C-11.60823637 145.84993351 -11.42014703 143.85616674 -11.43232727 140.89163208 C-11.44306023 139.10396423 -11.44306023 139.10396423 -11.45401001 137.28018188 C-11.45669891 135.96585175 -11.45938782 134.65152161 -11.4621582 133.29736328 C-11.46842199 131.90455963 -11.47506871 130.51175765 -11.48207092 129.11895752 C-11.49948662 125.32967785 -11.51003389 121.5404108 -11.51827645 117.75110102 C-11.52342465 115.38481457 -11.52950041 113.01853206 -11.53578758 110.65224838 C-11.55483993 103.25189763 -11.56907184 95.85155687 -11.57739955 88.4511863 C-11.58717786 79.90247305 -11.61351247 71.35401832 -11.65390044 62.8053962 C-11.68403236 56.20152409 -11.69886557 49.59772623 -11.70218056 42.99378669 C-11.70453411 39.0476427 -11.7135338 35.10177489 -11.73864174 31.1557045 C-11.76187714 27.44398219 -11.76617435 23.73271879 -11.75588036 20.02094269 C-11.75514687 18.00827618 -11.77426928 15.99563321 -11.79394531 13.98306274 C-11.7870015 12.78564453 -11.78005768 11.58822632 -11.77290344 10.35452271 C-11.7752918 9.31365068 -11.77768015 8.27277866 -11.78014088 7.20036507 C-10.55671086 0.51634598 -6.01069354 -0.00856383 0 0 Z " fill="#244BBB" transform="translate(569.28515625,499.50390625)"/>
<path d="M0 0 C7.49910911 5.38333375 12.49292733 12.76884846 15.46484375 21.4921875 C15.97614058 25.87790939 15.93844791 30.25012663 15.91088867 34.66064453 C15.90241836 36.72401141 15.93112423 38.78456464 15.96289062 40.84765625 C16.02585219 52.44191459 14.05252864 61.93092719 5.88671875 70.48046875 C-4.36829332 78.9987449 -15.49673375 80.33937788 -28.30859375 79.70556641 C-38.13106514 78.76424623 -46.30643609 72.85138712 -52.53515625 65.4921875 C-60.47456819 52.97361265 -62.48089821 39.21224918 -59.91015625 24.6796875 C-57.0621159 14.3159851 -50.77714277 5.16677596 -41.49609375 -0.296875 C-27.91902621 -7.26709702 -13.52077857 -8.0416341 0 0 Z " fill="#FDFDFE" transform="translate(286.53515625,538.5078125)"/>
<path d="M0 0 C5.84450646 3.53184154 10.50406208 8.98644525 12.5625 15.5 C13.63159766 24.08654225 12.83907383 31.46880643 7.5625 38.5 C2.29169217 43.70586974 -3.3250801 46.46393177 -10.75 46.875 C-18.48028249 46.67979085 -25.12419569 42.93686952 -30.4375 37.5 C-34.69937484 30.65641252 -36.78458014 23.49336502 -34.9765625 15.44921875 C-32.81050744 8.88734607 -28.86443658 3.67958121 -22.9375 0.0625 C-16.10789353 -2.97142134 -6.85159947 -2.99173154 0 0 Z " fill="#254CBB" transform="translate(588.4375,440.5)"/>
<path d="M0 0 C1.58206057 0.00667536 3.16410534 0.0186375 4.74609375 0.03515625 C5.55240234 0.03966797 6.35871094 0.04417969 7.18945312 0.04882812 C9.18753131 0.06065107 11.18557158 0.07858711 13.18359375 0.09765625 C13.209375 1.13921875 13.23515625 2.18078125 13.26171875 3.25390625 C13.63394535 13.70327753 15.28255835 23.04803175 18.18359375 33.09765625 C18.56020635 34.41788021 18.93651941 35.73818966 19.3125 37.05859375 C19.59996094 38.06148438 19.88742187 39.064375 20.18359375 40.09765625 C10.14490772 36.33314899 3.44749925 30.51141318 -1.81640625 21.09765625 C-4.64626424 14.63514367 -5.55422401 8.12111378 -4.81640625 1.09765625 C-3.81640625 0.09765625 -3.81640625 0.09765625 0 0 Z " fill="#FBFCFE" transform="translate(271.81640625,265.90234375)"/>
<path d="M0 0 C5.61 0 11.22 0 17 0 C17.53757104 12.63291944 15.58840147 21.49359837 7 31 C3.68374473 34.23712554 0.36487514 37.29200538 -4 39 C-4.99 38.67 -5.98 38.34 -7 38 C-6.66226562 37.01644531 -6.32453125 36.03289062 -5.9765625 35.01953125 C-2.18536886 23.41652435 -0.79587714 12.15197485 0 0 Z " fill="#F9FBFE" transform="translate(406,266)"/>
<path d="M0 0 C1.36088895 4.08266686 0.68398693 6.75928101 0 11 C-0.33 11.33 -0.66 11.66 -1 12 C-1.07271741 14.35313555 -1.08370868 16.70833668 -1.0625 19.0625 C-1.05347656 20.35285156 -1.04445313 21.64320313 -1.03515625 22.97265625 C-1.02355469 23.97167969 -1.01195312 24.97070312 -1 26 C8.22161978 27.1734927 17.34835321 27.11370415 26.625 27.0625 C28.21744651 27.05747395 29.80989455 27.052913 31.40234375 27.04882812 C35.26826779 27.03791237 39.13411653 27.02070895 43 27 C43.99 24.03 44.98 21.06 46 18 C47 20 47 20 46.4765625 22.12890625 C46.19554687 22.93199219 45.91453125 23.73507812 45.625 24.5625 C45.34914063 25.36816406 45.07328125 26.17382812 44.7890625 27.00390625 C44 29 44 29 43 30 C41.61225229 30.09977025 40.21945306 30.1308077 38.828125 30.1328125 C37.50433838 30.13619629 37.50433838 30.13619629 36.15380859 30.13964844 C35.19555176 30.13481445 34.23729492 30.12998047 33.25 30.125 C32.27240723 30.12016602 31.29481445 30.11533203 30.28759766 30.11035156 C27.19146421 30.08553087 24.09589464 30.04554211 21 30 C19.49808105 29.98114746 19.49808105 29.98114746 17.96582031 29.96191406 C15.10099341 29.91556988 12.23880361 29.83851389 9.375 29.75 C8.49360352 29.73598145 7.61220703 29.72196289 6.70410156 29.70751953 C2.86382058 29.55634513 0.65197619 29.45190411 -2.55859375 27.2265625 C-6.2995918 21.44778502 -3.862673 13.7517065 -2.5625 7.4375 C-1.16481994 1.16481994 -1.16481994 1.16481994 0 0 Z " fill="#4194F7" transform="translate(711,455)"/>
<path d="M0 0 C0.66 0.33 1.32 0.66 2 1 C0.29231534 2.70768466 -1.41559272 4.41513286 -3.125 6.12109375 C-4.65534608 7.65462805 -6.17326752 9.20055281 -7.6875 10.75 C-9.69974483 12.70785984 -11.70789225 14.38703529 -14 16 C-12.34136495 11.67495164 -9.128959 8.90581175 -5.875 5.75 C-5.31167969 5.19570312 -4.74835938 4.64140625 -4.16796875 4.0703125 C-2.78313972 2.70895515 -1.39216796 1.35385141 0 0 Z " fill="#2C89F7" transform="translate(233,205)"/>
<path d="M0 0 C1.09570312 0.00902344 2.19140625 0.01804687 3.3203125 0.02734375 C4.16335938 0.03894531 5.00640625 0.05054688 5.875 0.0625 C5.875 0.3925 5.875 0.7225 5.875 1.0625 C0.925 1.7225 -4.025 2.3825 -9.125 3.0625 C-9.125 3.7225 -9.125 4.3825 -9.125 5.0625 C-10.445 4.7325 -11.765 4.4025 -13.125 4.0625 C-8.24110307 1.10645712 -5.75606763 -0.06123476 0 0 Z " fill="#1027AD" transform="translate(576.125,438.9375)"/>
<path d="M0 0 C0.33 1.32 0.66 2.64 1 4 C0.01 4.33 -0.98 4.66 -2 5 C-2.71706982 6.98248715 -3.38290413 8.98415349 -4 11 C-4.66 11.66 -5.32 12.32 -6 13 C-5.51675181 7.84535266 -2.81389239 4.18449681 0 0 Z " fill="#318DF7" transform="translate(718,441)"/>
<path d="M0 0 C2.97 0.33 5.94 0.66 9 1 C5.00889681 2.9955516 3.30013434 3.19546065 -1 3 C-0.67 2.01 -0.34 1.02 0 0 Z " fill="#2F54BF" transform="translate(249,496)"/>
<path d="M0 0 C2.3125 0.8125 2.3125 0.8125 4 2 C-2.75 4.125 -2.75 4.125 -5 3 C-2.75 1.375 -2.75 1.375 0 0 Z " fill="#3C93F8" transform="translate(294,400)"/>
<path d="M0 0 C0.33 0.99 0.66 1.98 1 3 C-0.65 4.32 -2.3 5.64 -4 7 C-4.66 6.67 -5.32 6.34 -6 6 C-4.02 4.02 -2.04 2.04 0 0 Z " fill="#338DF7" transform="translate(757,398)"/>
</svg>
