<svg xmlns="http://www.w3.org/2000/svg" version="1.1" width="192px" height="192px" style="shape-rendering:geometricPrecision; text-rendering:geometricPrecision; image-rendering:optimizeQuality; fill-rule:evenodd; clip-rule:evenodd" xmlns:xlink="http://www.w3.org/1999/xlink">
<g></g>
<g><path style="opacity:1" fill="#f5f5f5" d="M 43.5,17.5 C 77.5016,17.3333 111.502,17.5 145.5,18C 160.667,21.1667 169.833,30.3333 173,45.5C 173.667,66.8333 173.667,88.1667 173,109.5C 169.946,124.221 161.113,133.387 146.5,137C 126.167,137.333 105.833,137.667 85.5,138C 75.1967,149.304 64.53,160.304 53.5,171C 51.2992,171.825 49.4659,171.325 48,169.5C 47.5002,158.839 47.3335,148.172 47.5,137.5C 31.3471,134.848 21.5137,125.514 18,109.5C 17.0641,86.4635 17.3974,63.4635 19,40.5C 23.5168,28.8128 31.6835,21.1461 43.5,17.5 Z" data-index="1"></path></g>
<g><path style="opacity:1" fill="#030303" d="M 46.5,26.5 C 78.8351,26.3334 111.168,26.5 143.5,27C 152.94,28.4698 159.44,33.6364 163,42.5C 163.667,65.5 163.667,88.5 163,111.5C 159.47,121.687 152.304,127.187 141.5,128C 121.5,128.333 101.5,128.667 81.5,129C 72.9691,137.197 64.8025,145.697 57,154.5C 56.6667,146.833 56.3333,139.167 56,131.5C 55.0975,130.299 53.9308,129.465 52.5,129C 40.2796,128.655 32.1129,122.822 28,111.5C 27.3333,88.5 27.3333,65.5 28,42.5C 31.6085,34.0484 37.7752,28.7151 46.5,26.5 Z" data-index="2"></path></g>
<g><path style="opacity:1" fill="#f8f8f8" d="M 70.5,38.5 C 87.18,38.1672 103.847,38.5005 120.5,39.5C 121.246,40.7362 121.579,42.0695 121.5,43.5C 138.526,41.3514 144.359,48.3514 139,64.5C 132.729,75.4046 123.229,81.5713 110.5,83C 107.579,86.5916 104.079,89.4249 100,91.5C 99.0354,97.944 100.535,103.777 104.5,109C 107.758,109.212 110.924,109.712 114,110.5C 114.667,113.5 114.667,116.5 114,119.5C 101.667,120.833 89.3333,120.833 77,119.5C 76.3333,116.5 76.3333,113.5 77,110.5C 79.7405,109.718 82.5738,109.218 85.5,109C 90.0894,104.034 91.5894,98.2002 90,91.5C 86.5153,89.1796 83.3487,86.5129 80.5,83.5C 68.9684,82.1159 59.8017,76.7826 53,67.5C 45.4386,49.6071 51.2719,41.6071 70.5,43.5C 70.5,41.8333 70.5,40.1667 70.5,38.5 Z" data-index="3"></path></g>
<g><path style="opacity:1" fill="#080707" d="M 58.5,50.5 C 62.1667,50.5 65.8333,50.5 69.5,50.5C 69.7114,58.4714 71.3781,66.138 74.5,73.5C 74,73.8333 73.5,74.1667 73,74.5C 63.1763,71.6995 57.6763,65.1995 56.5,55C 56.5186,53.167 57.1852,51.667 58.5,50.5 Z" data-index="4"></path></g>
<g><path style="opacity:1" fill="#111111" d="M 125.5,49.5 C 132.99,48.3019 135.823,51.3019 134,58.5C 131.179,67.5189 125.346,72.5189 116.5,73.5C 119.558,66.4907 121.058,59.1574 121,51.5C 122.622,50.9011 124.122,50.2344 125.5,49.5 Z" data-index="5"></path></g>
</svg>